<?xml version="1.0" encoding="UTF-8" standalone="no"?>
<!-- Created with Inkscape (http://www.inkscape.org/) -->

<svg
   xmlns:dc="http://purl.org/dc/elements/1.1/"
   xmlns:cc="http://creativecommons.org/ns#"
   xmlns:rdf="http://www.w3.org/1999/02/22-rdf-syntax-ns#"
   xmlns:svg="http://www.w3.org/2000/svg"
   xmlns="http://www.w3.org/2000/svg"
   xmlns:sodipodi="http://sodipodi.sourceforge.net/DTD/sodipodi-0.dtd"
   xmlns:inkscape="http://www.inkscape.org/namespaces/inkscape"
   width="744.09448819"
   height="1052.3622047"
   id="svg2"
   version="1.1"
   inkscape:version="0.48.2 r9819"
   sodipodi:docname="mma_logo.svg">
  <defs
     id="defs4">
    <inkscape:path-effect
       effect="skeletal"
       id="path-effect4964"
       is_visible="true"
       pattern="m 317.37238,384.86533 a 38.28766,20.758369 0 1 1 -76.57532,0 38.28766,20.758369 0 1 1 76.57532,0 z"
       copytype="repeated"
       prop_scale="1"
       scale_y_rel="false"
       spacing="0"
       normal_offset="0"
       tang_offset="0"
       prop_units="false"
       vertical_pattern="false"
       fuse_tolerance="0" />
    <path
       sodipodi:type="arc"
       style="fill:none;stroke:none"
       id="path4872-1"
       sodipodi:cx="374.11194"
       sodipodi:cy="499.267"
       sodipodi:rx="122.24372"
       sodipodi:ry="114.86297"
       d="m 496.35566,499.267 a 122.24372,114.86297 0 1 1 -244.48744,0 122.24372,114.86297 0 1 1 244.48744,0 z"
       transform="matrix(1.2517919,0,0,1.2559231,-159.24124,-228.33671)" />
  </defs>
  <sodipodi:namedview
     id="base"
     pagecolor="#ffffff"
     bordercolor="#666666"
     borderopacity="1.0"
     inkscape:pageopacity="0.0"
     inkscape:pageshadow="2"
     inkscape:zoom="0.956"
     inkscape:cx="319.60563"
     inkscape:cy="708.04695"
     inkscape:document-units="px"
     inkscape:current-layer="layer1"
     showgrid="false"
     inkscape:window-width="1176"
     inkscape:window-height="697"
     inkscape:window-x="25"
     inkscape:window-y="18"
     inkscape:window-maximized="0" />
  <metadata
     id="metadata7">
    <rdf:RDF>
      <cc:Work
         rdf:about="">
        <dc:format>image/svg+xml</dc:format>
        <dc:type
           rdf:resource="http://purl.org/dc/dcmitype/StillImage" />
        <dc:title></dc:title>
      </cc:Work>
    </rdf:RDF>
  </metadata>
  <g
     inkscape:label="Layer 1"
     inkscape:groupmode="layer"
     id="layer1">
    <path
       style="fill:none;stroke:none;stroke-width:0.94353317999999997px;stroke-linecap:butt;stroke-linejoin:miter;stroke-opacity:1"
       d="m 595.86207,533.76058 c 0,112.85614 -95.019,204.34413 -212.23086,204.34413 -117.21188,0 -212.23087,-91.48799 -212.23087,-204.34413 0,-112.85615 95.01899,-204.34413 212.23087,-204.34413 117.21186,0 212.23086,91.48798 212.23086,204.34413 z"
       id="path4099"
       inkscape:connector-curvature="0" />
    <path
       sodipodi:type="arc"
       style="fill:none;stroke:none;stroke-opacity:1"
       id="path4872"
       sodipodi:cx="374.11194"
       sodipodi:cy="499.267"
       sodipodi:rx="122.24372"
       sodipodi:ry="114.86297"
       d="m 496.35566,499.267 a 122.24372,114.86297 0 1 1 -244.48744,0 122.24372,114.86297 0 1 1 244.48744,0 z"
       transform="matrix(1.2517919,0,0,1.2559231,-159.24124,-228.33671)" />
    <g
       transform="matrix(-0.59881062,0.97185359,-0.91954298,-0.62437968,873.72801,295.13444)"
       inkscape:transform-center-x="89.19122"
       inkscape:transform-center-y="-73.69043"
       style="font-size:64px;font-style:normal;font-variant:normal;font-weight:normal;font-stretch:normal;text-align:start;line-height:125%;letter-spacing:0px;word-spacing:0px;writing-mode:lr-tb;text-anchor:start;fill:#000001;fill-opacity:1;stroke:#040307;stroke-width:0.98394185;stroke-opacity:0.99415205;font-family:Sans;-inkscape-font-specification:Sans"
       id="text4881-7">
      <path
         d="m 463.75533,403.70115 44.94751,8.86039 -1.76482,8.95271 -33.92229,4.36541 c -3.15721,0.39685 -5.51597,0.67507 -7.07629,0.83467 1.53447,0.83331 3.77902,2.10391 6.73367,3.8118 l 29.15175,16.92645 -1.57747,8.00225 -44.94751,-8.86039 1.13022,-5.73341 37.61978,7.41589 -35.04507,-20.47704 1.05769,-5.36549 40.82626,-5.45701 -38.26364,-7.54282 z"
         style="font-size:64px;font-style:normal;font-variant:normal;font-weight:normal;font-stretch:normal;text-align:start;line-height:125%;writing-mode:lr-tb;text-anchor:start;fill:#000001;fill-opacity:1;stroke:#040307;stroke-opacity:0.99415205;font-family:Sans;-inkscape-font-specification:Sans"
         id="path5105"
         inkscape:connector-curvature="0" />
      <path
         d="m 485.77347,471.44016 5.85079,2.75917 -2.39928,5.08764 -5.85079,-2.75917 z m -35.58522,-16.78162 30.01708,14.15574 -2.39928,5.08764 -30.01708,-14.15574 z"
         style="font-size:64px;font-style:normal;font-variant:normal;font-weight:normal;font-stretch:normal;text-align:start;line-height:125%;writing-mode:lr-tb;text-anchor:start;fill:#000001;fill-opacity:1;stroke:#040307;stroke-opacity:0.99415205;font-family:Sans;-inkscape-font-specification:Sans"
         id="path5107"
         inkscape:connector-curvature="0" />
      <path
         d="m 443.80269,467.21961 39.24859,23.62908 -2.90126,4.81906 -39.24858,-23.62908 z"
         style="font-size:64px;font-style:normal;font-variant:normal;font-weight:normal;font-stretch:normal;text-align:start;line-height:125%;writing-mode:lr-tb;text-anchor:start;fill:#000001;fill-opacity:1;stroke:#040307;stroke-opacity:0.99415205;font-family:Sans;-inkscape-font-specification:Sans"
         id="path5109"
         inkscape:connector-curvature="0" />
      <path
         d="m 436.10605,479.20905 36.71243,27.40405 -3.36475,4.50767 -36.71244,-27.40406 z"
         style="font-size:64px;font-style:normal;font-variant:normal;font-weight:normal;font-stretch:normal;text-align:start;line-height:125%;writing-mode:lr-tb;text-anchor:start;fill:#000001;fill-opacity:1;stroke:#040307;stroke-opacity:0.99415205;font-family:Sans;-inkscape-font-specification:Sans"
         id="path5111"
         inkscape:connector-curvature="0" />
      <path
         d="m 418.50911,514.29164 -4.70574,3.4868 c -1.67726,-3.09174 -2.26438,-6.17129 -1.76137,-9.23865 0.50305,-3.0674 2.15042,-5.92971 4.94211,-8.58695 3.51605,-3.3467 7.33457,-4.91763 11.45555,-4.71278 4.12099,0.20484 8.04155,2.26145 11.76171,6.16985 3.8494,4.04419 5.79578,8.17405 5.83913,12.3896 0.0433,4.2155 -1.59495,7.90325 -4.9148,11.06325 -3.21425,3.05939 -6.88131,4.46459 -11.00121,4.21561 -4.1199,-0.24907 -8.06864,-2.35795 -11.84625,-6.32666 -0.22981,-0.24148 -0.56698,-0.61083 -1.01154,-1.10805 l 17.92729,-17.06384 c -2.66451,-2.49719 -5.33619,-3.80829 -8.01503,-3.93333 -2.67884,-0.12506 -5.02177,0.76759 -7.02879,2.67795 -1.49393,1.42197 -2.39561,3.02803 -2.70504,4.81819 -0.30941,1.79012 0.0453,3.83979 1.06398,6.14901 z m 19.64723,-6.14632 -13.42284,12.77633 c 2.1058,1.84971 4.0624,2.87793 5.86981,3.08466 2.79157,0.33409 5.22104,-0.48274 7.28842,-2.45051 1.87119,-1.7811 2.84827,-3.90474 2.93124,-6.37093 0.0829,-2.46623 -0.80593,-4.81275 -2.66663,-7.03955 z"
         style="font-size:64px;font-style:normal;font-variant:normal;font-weight:normal;font-stretch:normal;text-align:start;line-height:125%;writing-mode:lr-tb;text-anchor:start;fill:#000001;fill-opacity:1;stroke:#040307;stroke-opacity:0.99415205;font-family:Sans;-inkscape-font-specification:Sans"
         id="path5113"
         inkscape:connector-curvature="0" />
      <path
         d="m 401.05082,514.73089 16.69214,28.68419 -4.37555,2.54626 -2.37337,-4.07845 c -0.27302,4.37706 -2.39924,7.72347 -6.37865,10.03924 -1.72861,1.00589 -3.49843,1.62 -5.30945,1.84234 -1.81101,0.22225 -3.37005,0.0388 -4.6771,-0.5504 -1.30704,-0.58926 -2.50803,-1.49328 -3.60299,-2.71208 -0.70397,-0.79557 -1.71086,-2.31874 -3.02068,-4.5695 l -10.26363,-17.63727 4.86173,-2.82917 10.1536,17.44819 c 1.15264,1.98067 2.20356,3.35167 3.15275,4.11301 0.94922,0.76126 2.07577,1.15422 3.37965,1.17887 1.3039,0.0246 2.60407,-0.34034 3.90053,-1.09476 2.07074,-1.20505 3.47541,-2.90226 4.21402,-5.09165 0.7386,-2.18944 0.0391,-5.1208 -2.09849,-8.79408 l -9.11624,-15.66556 z"
         style="font-size:64px;font-style:normal;font-variant:normal;font-weight:normal;font-stretch:normal;text-align:start;line-height:125%;writing-mode:lr-tb;text-anchor:start;fill:#000001;fill-opacity:1;stroke:#040307;stroke-opacity:0.99415205;font-family:Sans;-inkscape-font-specification:Sans"
         id="path5115"
         inkscape:connector-curvature="0" />
      <path
         d="m 383.64276,568.01972 2.3222,6.03756 -5.25006,2.0193 -2.32219,-6.03756 z m -14.1239,-36.7212 11.91388,30.97531 -5.25005,2.0193 -11.91388,-30.97531 z"
         style="font-size:64px;font-style:normal;font-variant:normal;font-weight:normal;font-stretch:normal;text-align:start;line-height:125%;writing-mode:lr-tb;text-anchor:start;fill:#000001;fill-opacity:1;stroke:#040307;stroke-opacity:0.99415205;font-family:Sans;-inkscape-font-specification:Sans"
         id="path5117"
         inkscape:connector-curvature="0" />
      <path
         d="m 335.92135,545.10068 c 1.66799,-2.16658 3.36822,-3.80747 5.10072,-4.9227 1.73253,-1.11523 3.67864,-1.90324 5.83835,-2.36403 3.56559,-0.76076 6.49183,-0.47443 8.77873,0.85898 2.28691,1.3334 3.71945,3.35502 4.29762,6.06487 0.33908,1.58922 0.28716,3.11808 -0.15575,4.58659 -0.44291,1.46848 -1.16537,2.72501 -2.16738,3.7696 -1.00201,1.04456 -2.19303,1.92709 -3.57307,2.6476 -1.019,0.51563 -2.59029,1.13846 -4.71388,1.8685 -4.32865,1.4774 -7.46403,2.80673 -9.40615,3.988 0.14049,0.75819 0.23246,1.23917 0.27591,1.44294 0.47821,2.24119 1.33466,3.70938 2.56938,4.40457 1.67105,0.94288 3.89205,1.11872 6.663,0.52754 2.5876,-0.55212 4.401,-1.413 5.44022,-2.58265 1.03923,-1.16971 1.60866,-2.96875 1.70829,-5.39714 l 5.53543,-0.41416 c 0.002,2.40666 -0.40589,4.43756 -1.22437,6.09273 -0.81848,1.6551 -2.2057,3.09075 -4.16166,4.30694 -1.95595,1.21612 -4.32959,2.12198 -7.12094,2.71757 -2.77095,0.59118 -5.09191,0.74554 -6.96289,0.4631 -1.87094,-0.28252 -3.31933,-0.83091 -4.34518,-1.64516 -1.0258,-0.81432 -1.86256,-1.94055 -2.51027,-3.3787 -0.38332,-0.89814 -0.83582,-2.56968 -1.3575,-5.01462 l -1.56498,-7.33491 c -1.0911,-5.11407 -1.89837,-8.32356 -2.42179,-9.62848 -0.52337,-1.30494 -1.26402,-2.50493 -2.22197,-3.59997 l 5.74568,-1.2259 c 0.81395,1.01926 1.46544,2.27555 1.95445,3.76889 z m 3.07976,12.18816 c 1.82286,-1.24104 4.67014,-2.57281 8.54185,-3.99532 2.19206,-0.80855 3.71322,-1.51655 4.56351,-2.12399 0.8503,-0.60748 1.44645,-1.35777 1.78845,-2.25086 0.342,-0.89312 0.41085,-1.81848 0.20653,-2.77608 -0.31299,-1.46699 -1.12903,-2.57101 -2.44813,-3.31207 -1.31907,-0.74108 -3.04829,-0.88338 -5.18765,-0.42693 -2.11896,0.4521 -3.90472,1.31774 -5.3573,2.59692 -1.45253,1.27915 -2.39422,2.80614 -2.82506,4.58095 -0.32566,1.36891 -0.22985,3.26566 0.28743,5.69028 z"
         style="font-size:64px;font-style:normal;font-variant:normal;font-weight:normal;font-stretch:normal;text-align:start;line-height:125%;writing-mode:lr-tb;text-anchor:start;fill:#000001;fill-opacity:1;stroke:#040307;stroke-opacity:0.99415205;font-family:Sans;-inkscape-font-specification:Sans"
         id="path5119"
         inkscape:connector-curvature="0" />
      <path
         d="m 321.28446,542.53835 2.55678,45.74109 -5.61623,0.31393 -2.55679,-45.74109 z"
         style="font-size:64px;font-style:normal;font-variant:normal;font-weight:normal;font-stretch:normal;text-align:start;line-height:125%;writing-mode:lr-tb;text-anchor:start;fill:#000001;fill-opacity:1;stroke:#040307;stroke-opacity:0.99415205;font-family:Sans;-inkscape-font-specification:Sans"
         id="path5121"
         inkscape:connector-curvature="0" />
      <path
         d="m 288.36499,543.17512 -11.87094,44.24778 -8.81333,-2.36447 -2.06818,-34.13943 c -0.18306,-3.17678 -0.3016,-5.54893 -0.35562,-7.11646 -0.93489,1.47478 -2.35394,3.62855 -4.25717,6.46131 l -18.85356,27.94409 -7.87768,-2.11344 11.87094,-44.24778 5.64416,1.51423 -9.93564,37.03412 22.79345,-33.58458 5.28197,1.41706 2.69176,41.1013 10.10569,-37.66796 z"
         style="font-size:64px;font-style:normal;font-variant:normal;font-weight:normal;font-stretch:normal;text-align:start;line-height:125%;writing-mode:lr-tb;text-anchor:start;fill:#000001;fill-opacity:1;stroke:#040307;stroke-opacity:0.99415205;font-family:Sans;-inkscape-font-specification:Sans"
         id="path5123"
         inkscape:connector-curvature="0" />
      <path
         d="m 231.17536,542.43089 c -3.1889,5.25375 -7.01123,8.25869 -11.46699,9.01482 -3.71543,0.62053 -7.32737,-0.13396 -10.83585,-2.26349 -3.90022,-2.36738 -6.31249,-5.58017 -7.23681,-9.63838 -0.92425,-4.05822 -0.0189,-8.34022 2.71592,-12.84599 2.21606,-3.65092 4.50679,-6.19027 6.8722,-7.61808 2.36547,-1.42778 4.9458,-2.0854 7.74102,-1.97286 2.79527,0.11256 5.43064,0.92012 7.90613,2.42269 3.9715,2.41061 6.40873,5.63246 7.3117,9.66556 0.90299,4.03309 -0.0995,8.445 -3.00732,13.23573 z m -4.94211,-2.99974 c 2.20523,-3.63312 3.06393,-6.83454 2.57608,-9.60427 -0.48782,-2.76973 -1.93386,-4.88426 -4.33815,-6.3436 -2.38643,-1.44852 -4.92348,-1.74554 -7.61115,-0.89107 -2.68761,0.85448 -5.16107,3.1428 -7.42036,6.86496 -2.12951,3.50844 -2.94592,6.65023 -2.44922,9.42538 0.49677,2.77512 1.92946,4.88155 4.29808,6.31927 2.40429,1.45932 4.94484,1.77065 7.62165,0.934 2.67685,-0.83668 5.11788,-3.07157 7.32307,-6.70467 z"
         style="font-size:64px;font-style:normal;font-variant:normal;font-weight:normal;font-stretch:normal;text-align:start;line-height:125%;writing-mode:lr-tb;text-anchor:start;fill:#000001;fill-opacity:1;stroke:#040307;stroke-opacity:0.99415205;font-family:Sans;-inkscape-font-specification:Sans"
         id="path5125"
         inkscape:connector-curvature="0" />
      <path
         d="m 192.68881,492.68469 -2.94465,2.97728 c 3.81076,-0.86069 7.16774,0.14466 10.07094,3.01605 1.88118,1.86056 3.09777,4.08937 3.64977,6.68645 0.55203,2.5971 0.34201,5.25362 -0.63005,7.9696 -0.97205,2.71596 -2.65205,5.28115 -5.04001,7.69557 -2.32933,2.35515 -4.83512,4.10361 -7.51736,5.24537 -2.68221,1.14173 -5.3138,1.44718 -7.89478,0.91635 -2.58093,-0.53087 -4.84161,-1.75586 -6.78206,-3.675 -1.42195,-1.40641 -2.39174,-2.95893 -2.90938,-4.65757 -0.51756,-1.69866 -0.64833,-3.37366 -0.3923,-5.025 l -11.55884,11.68693 -3.97712,-3.93352 32.21535,-32.57234 z m 0.99558,24.27958 c 2.98861,-3.02172 4.58581,-5.91055 4.79158,-8.6665 0.2058,-2.75594 -0.55782,-4.99093 -2.29088,-6.70499 -1.74784,-1.72869 -3.93964,-2.48265 -6.5754,-2.2619 -2.63572,0.22078 -5.40394,1.79758 -8.30466,4.73041 -3.19367,3.2291 -4.91555,6.21437 -5.16565,8.95583 -0.25002,2.74145 0.5359,5.01315 2.35779,6.81511 1.77751,1.75799 3.98029,2.50084 6.60836,2.22857 2.62811,-0.27229 5.48773,-1.97114 8.57886,-5.09653 z"
         style="font-size:64px;font-style:normal;font-variant:normal;font-weight:normal;font-stretch:normal;text-align:start;line-height:125%;writing-mode:lr-tb;text-anchor:start;fill:#000001;fill-opacity:1;stroke:#040307;stroke-opacity:0.99415205;font-family:Sans;-inkscape-font-specification:Sans"
         id="path5127"
         inkscape:connector-curvature="0" />
      <path
         d="m 162.38824,468.17198 -2.40622,-5.33965 c 3.37773,-0.98134 6.51169,-0.90007 9.4019,0.2438 2.89024,1.14392 5.3367,3.36236 7.33941,6.65532 2.52234,4.14739 3.2452,8.21265 2.16859,12.19579 -1.0766,3.98314 -3.91999,7.37661 -8.53018,10.18041 -4.77035,2.90122 -9.21969,3.92473 -13.34801,3.07052 -4.12828,-0.85422 -7.38323,-3.23932 -9.76487,-7.15529 -2.30578,-3.79138 -2.89892,-7.67341 -1.77942,-11.6461 1.11959,-3.97267 4.02004,-7.38256 8.70138,-10.22967 0.28483,-0.17319 0.71744,-0.4241 1.29784,-0.75274 l 12.86067,21.14629 c 3.00674,-2.07245 4.85607,-4.40416 5.54798,-6.99513 0.69193,-2.59095 0.318,-5.07012 -1.1218,-7.43752 -1.07171,-1.76218 -2.44926,-2.98481 -4.13265,-3.66789 -1.68336,-0.68305 -3.76157,-0.77243 -6.23462,-0.26814 z m 1.82713,20.50494 -9.62927,-15.83302 c -2.25525,1.66423 -3.67607,3.35738 -4.26247,5.07948 -0.92017,2.65664 -0.63872,5.20426 0.84434,7.64284 1.34239,2.20719 3.20964,3.61357 5.60175,4.21915 2.39218,0.60557 4.87405,0.23609 7.44565,-1.10845 z"
         style="font-size:64px;font-style:normal;font-variant:normal;font-weight:normal;font-stretch:normal;text-align:start;line-height:125%;writing-mode:lr-tb;text-anchor:start;fill:#000001;fill-opacity:1;stroke:#040307;stroke-opacity:0.99415205;font-family:Sans;-inkscape-font-specification:Sans"
         id="path5129"
         inkscape:connector-curvature="0" />
      <path
         d="m 166.19751,450.89211 -31.25735,11.15297 -1.7013,-4.76807 4.73864,-1.6908 c -2.65129,-0.4254 -4.51393,-1.02715 -5.58791,-1.80525 -1.07391,-0.77809 -1.83142,-1.78522 -2.27253,-3.02139 -0.63708,-1.78556 -0.71566,-3.8036 -0.23576,-6.05412 l 5.56635,0.071 c -0.30313,1.56808 -0.22367,2.99964 0.23837,4.29466 0.41311,1.15769 1.13246,2.07336 2.15806,2.74703 1.02565,0.67368 2.22656,0.9862 3.60272,0.93755 2.09375,-0.0835 4.25904,-0.52427 6.49589,-1.32241 l 16.36448,-5.83903 z"
         style="font-size:64px;font-style:normal;font-variant:normal;font-weight:normal;font-stretch:normal;text-align:start;line-height:125%;writing-mode:lr-tb;text-anchor:start;fill:#000001;fill-opacity:1;stroke:#040307;stroke-opacity:0.99415205;font-family:Sans;-inkscape-font-specification:Sans"
         id="path5131"
         inkscape:connector-curvature="0" />
      <path
         d="m 159.09858,430.56991 -32.8884,4.44561 -0.67814,-5.01688 4.67622,-0.63209 c -3.93946,-1.92715 -6.21757,-5.17206 -6.83436,-9.73475 -0.26787,-1.98195 -0.15801,-3.85206 0.32957,-5.61033 0.48766,-1.75823 1.25373,-3.1284 2.29822,-4.11053 1.04455,-0.98208 2.33934,-1.74573 3.88437,-2.29097 1.0044,-0.34597 2.79693,-0.69338 5.3776,-1.04225 l 20.22234,-2.7335 0.75349,5.5743 -20.00556,2.7042 c -2.27099,0.307 -3.93978,0.75332 -5.00639,1.33895 -1.06655,0.58567 -1.86067,1.47611 -2.38238,2.67133 -0.52165,1.19525 -0.68202,2.53611 -0.48112,4.02257 0.32096,2.37426 1.3515,4.32147 3.09162,5.84164 1.74018,1.52019 4.7161,1.99563 8.92778,1.42632 l 17.96164,-2.42792 z"
         style="font-size:64px;font-style:normal;font-variant:normal;font-weight:normal;font-stretch:normal;text-align:start;line-height:125%;writing-mode:lr-tb;text-anchor:start;fill:#000001;fill-opacity:1;stroke:#040307;stroke-opacity:0.99415205;font-family:Sans;-inkscape-font-specification:Sans"
         id="path5133"
         inkscape:connector-curvature="0" />
      <path
         d="m 116.7619,393.24315 -6.46162,-0.30371 0.2641,-5.6188 6.46162,0.30371 z m 39.30036,1.84723 -33.1509,-1.55819 0.2641,-5.61879 33.1509,1.55818 z"
         style="font-size:64px;font-style:normal;font-variant:normal;font-weight:normal;font-stretch:normal;text-align:start;line-height:125%;writing-mode:lr-tb;text-anchor:start;fill:#000001;fill-opacity:1;stroke:#040307;stroke-opacity:0.99415205;font-family:Sans;-inkscape-font-specification:Sans"
         id="path5135"
         inkscape:connector-curvature="0" />
      <path
         d="m 156.0603,383.72709 -4.45644,-0.97804 -19.15787,-25.83223 c -0.39146,2.36696 -0.7837,4.44579 -1.17673,6.23648 l -2.90059,13.2167 -4.45644,-0.97803 5.81459,-26.49445 3.63231,0.79716 16.72104,22.06607 3.01083,4.21207 c 0.35723,-2.50241 0.77254,-4.83212 1.24593,-6.98914 l 3.28913,-14.98707 4.73115,1.03833 z"
         style="font-size:64px;font-style:normal;font-variant:normal;font-weight:normal;font-stretch:normal;text-align:start;line-height:125%;writing-mode:lr-tb;text-anchor:start;fill:#000001;fill-opacity:1;stroke:#040307;stroke-opacity:0.99415205;font-family:Sans;-inkscape-font-specification:Sans"
         id="path5137"
         inkscape:connector-curvature="0" />
      <path
         d="m 170.37393,328.47495 c 0.65864,2.65376 0.88565,5.00574 0.68102,7.05595 -0.20464,2.05025 -0.79835,4.06416 -1.78113,6.04174 -1.62252,3.26491 -3.6671,5.37785 -6.13376,6.33884 -2.46665,0.96101 -4.94064,0.82495 -7.42196,-0.40817 -1.45521,-0.72317 -2.61991,-1.71492 -3.49413,-2.97525 -0.8742,-1.26031 -1.40855,-2.60764 -1.60305,-4.04199 -0.19448,-1.43432 -0.14452,-2.91584 0.14989,-4.44456 0.23021,-1.11858 0.72007,-2.73627 1.46957,-4.85307 1.53614,-4.30816 2.44586,-7.58995 2.72919,-9.84538 -0.68102,-0.36167 -1.11481,-0.58887 -1.30138,-0.68162 -2.05221,-1.01984 -3.73452,-1.26264 -5.04692,-0.72841 -1.77777,0.72177 -3.29712,2.35129 -4.55807,4.88855 -1.17746,2.3694 -1.63156,4.32474 -1.36229,5.86602 0.26931,1.54133 1.32361,3.10634 3.1629,4.69504 l -3.11931,4.59155 c -1.88566,-1.49542 -3.22184,-3.07838 -4.00856,-4.74888 -0.78667,-1.67046 -1.04771,-3.64968 -0.78311,-5.93766 0.26464,-2.28794 1.03205,-4.70989 2.30222,-7.26587 1.26095,-2.53725 2.58396,-4.45045 3.96903,-5.73961 1.3851,-1.28908 2.7155,-2.08193 3.99119,-2.37856 1.27571,-0.29655 2.67803,-0.25106 4.20694,0.13649 0.94166,0.25862 2.53187,0.9442 4.77065,2.05675 l 6.71635,3.33775 c 4.68279,2.32718 7.69783,3.69176 9.04512,4.09374 1.34727,0.40203 2.74755,0.56866 4.20084,0.49987 l -2.61457,5.26114 c -1.30438,0.003 -2.69327,-0.26826 -4.16667,-0.8144 z m -11.45851,-5.17096 c -0.16234,2.19923 -0.89093,5.25697 -2.18577,9.17323 -0.73063,2.21924 -1.12263,3.85067 -1.17599,4.89428 -0.0533,1.04365 0.16321,1.97715 0.64969,2.8005 0.4865,0.82338 1.16817,1.45294 2.04502,1.88869 1.34327,0.66756 2.71532,0.71546 4.11613,0.14371 1.40081,-0.57174 2.58797,-1.83708 3.56148,-3.79603 0.96423,-1.94027 1.39741,-3.87692 1.29954,-5.80997 -0.0979,-1.93302 -0.7076,-3.62023 -1.82914,-5.06165 -0.86918,-1.10658 -2.41383,-2.21154 -4.63396,-3.31488 z"
         style="font-size:64px;font-style:normal;font-variant:normal;font-weight:normal;font-stretch:normal;text-align:start;line-height:125%;writing-mode:lr-tb;text-anchor:start;fill:#000001;fill-opacity:1;stroke:#040307;stroke-opacity:0.99415205;font-family:Sans;-inkscape-font-specification:Sans"
         id="path5139"
         inkscape:connector-curvature="0" />
      <path
         d="m 185.11338,305.76533 4.44995,2.35511 c -0.69118,1.463 -1.41444,2.69247 -2.16978,3.68843 -1.23373,1.62676 -2.44779,2.69319 -3.64218,3.1993 -1.1944,0.50612 -2.34921,0.6239 -3.46444,0.35333 -1.11523,-0.27055 -3.01741,-1.42554 -5.70653,-3.46498 l -15.21345,-11.53786 -2.49263,3.2867 -3.48589,-2.6437 2.49263,-3.2867 -6.54851,-4.96638 0.69104,-6.4964 9.23763,7.00581 3.41793,-4.50677 3.48589,2.64371 -3.41793,4.50676 15.46244,11.7267 c 1.27816,0.96937 2.15964,1.51368 2.64442,1.63293 0.48479,0.11928 0.97041,0.0823 1.45687,-0.11095 0.48645,-0.19322 0.98146,-0.62182 1.48503,-1.28581 0.37766,-0.49798 0.81683,-1.19772 1.31751,-2.09923 z"
         style="font-size:64px;font-style:normal;font-variant:normal;font-weight:normal;font-stretch:normal;text-align:start;line-height:125%;writing-mode:lr-tb;text-anchor:start;fill:#000001;fill-opacity:1;stroke:#040307;stroke-opacity:0.99415205;font-family:Sans;-inkscape-font-specification:Sans"
         id="path5141"
         inkscape:connector-curvature="0" />
      <path
         d="m 164.31172,277.73011 -4.69802,-4.44672 3.86672,-4.08523 4.69802,4.44672 z m 28.57393,27.04554 -24.10287,-22.81363 3.86672,-4.08523 24.10286,22.81363 z"
         style="font-size:64px;font-style:normal;font-variant:normal;font-weight:normal;font-stretch:normal;text-align:start;line-height:125%;writing-mode:lr-tb;text-anchor:start;fill:#000001;fill-opacity:1;stroke:#040307;stroke-opacity:0.99415205;font-family:Sans;-inkscape-font-specification:Sans"
         id="path5143"
         inkscape:connector-curvature="0" />
      <path
         d="m 190.90912,282.31122 c -3.70697,-4.90197 -5.09006,-9.56318 -4.14928,-13.98364 0.79374,-3.68232 2.82737,-6.76124 6.10089,-9.23679 3.63911,-2.75192 7.51515,-3.80898 11.62814,-3.17117 4.11297,0.63789 7.75906,3.05885 10.93828,7.26289 2.57602,3.4065 4.09132,6.47239 4.54591,9.19766 0.45455,2.72532 0.11399,5.36628 -1.02169,7.92287 -1.13571,2.55662 -2.85843,4.70827 -5.16817,6.45493 -3.70558,2.80224 -7.59925,3.87916 -11.68102,3.23076 -4.08177,-0.64838 -7.81279,-3.20755 -11.19306,-7.67751 z m 4.6112,-3.48708 c 2.56348,3.38987 5.22239,5.36891 7.97675,5.93714 2.75435,0.56825 5.25317,0.004 7.49647,-1.69226 2.22665,-1.68384 3.43857,-3.93241 3.63576,-6.74574 0.19715,-2.81328 -1.01742,-5.95639 -3.64371,-9.42936 -2.47552,-3.2735 -5.0946,-5.19124 -7.85726,-5.75324 -2.76267,-0.56192 -5.24903,-0.007 -7.45908,1.66399 -2.24328,1.69645 -3.46979,3.943 -3.67954,6.73966 -0.20972,2.79671 0.96714,5.88998 3.53061,9.27981 z"
         style="font-size:64px;font-style:normal;font-variant:normal;font-weight:normal;font-stretch:normal;text-align:start;line-height:125%;writing-mode:lr-tb;text-anchor:start;fill:#000001;fill-opacity:1;stroke:#040307;stroke-opacity:0.99415205;font-family:Sans;-inkscape-font-specification:Sans"
         id="path5145"
         inkscape:connector-curvature="0" />
      <path
         d="m 231.64457,273.57502 -13.44686,-30.34127 4.62833,-2.05121 1.91194,4.31406 c 0.75124,-4.32075 3.23151,-7.41389 7.44081,-9.27944 1.82847,-0.81031 3.65494,-1.2267 5.47943,-1.24915 1.82446,-0.0224 3.35398,0.33091 4.58857,1.05983 1.23456,0.729 2.3292,1.75925 3.28394,3.09074 0.61251,0.86796 1.44634,2.49233 2.50151,4.87312 l 8.26818,18.65616 -5.14259,2.27913 -8.17954,-18.45617 c -0.92855,-2.0951 -1.82283,-3.57305 -2.68284,-4.43386 -0.86003,-0.86074 -1.93671,-1.37483 -3.23004,-1.54227 -1.29334,-0.16738 -2.62568,0.0528 -3.99703,0.66053 -2.19037,0.97078 -3.77264,2.50377 -4.74682,4.59898 -0.97418,2.09527 -0.60027,5.08565 1.12174,8.97113 l 7.34386,16.57056 z"
         style="font-size:64px;font-style:normal;font-variant:normal;font-weight:normal;font-stretch:normal;text-align:start;line-height:125%;writing-mode:lr-tb;text-anchor:start;fill:#000001;fill-opacity:1;stroke:#040307;stroke-opacity:0.99415205;font-family:Sans;-inkscape-font-specification:Sans"
         id="path5147"
         inkscape:connector-curvature="0" />
      <path
         d="m 277.6906,256.05157 14.77353,-46.79816 6.51915,-0.39742 21.50288,44.5867 -6.89346,0.42024 -6.17812,-13.52413 -19.12075,1.16563 -4.17766,14.15543 z m 12.04955,-19.58198 15.50247,-0.94505 -5.54441,-12.37306 c -1.69017,-3.75825 -2.96418,-6.85313 -3.82204,-9.28464 -0.40353,2.96759 -1.04744,5.92892 -1.93175,8.88401 z"
         style="font-size:64px;font-style:normal;font-variant:normal;font-weight:normal;font-stretch:normal;text-align:start;line-height:125%;writing-mode:lr-tb;text-anchor:start;fill:#000001;fill-opacity:1;stroke:#040307;stroke-opacity:0.99415205;font-family:Sans;-inkscape-font-specification:Sans"
         id="path5149"
         inkscape:connector-curvature="0" />
      <path
         d="m 348.13289,246.40296 5.33264,1.63534 c -1.23443,3.65738 -3.25946,6.34039 -6.0751,8.04904 -2.81569,1.70864 -6.01039,2.25929 -9.58413,1.65193 -4.47748,-0.76094 -7.8282,-2.83605 -10.05218,-6.22534 -2.224,-3.38928 -2.87175,-7.81558 -1.94326,-13.27892 0.60037,-3.53266 1.71106,-6.52427 3.33206,-8.97484 1.62099,-2.45052 3.74044,-4.13484 6.35837,-5.05298 2.6179,-0.91807 5.33376,-1.13802 8.1476,-0.65984 3.5532,0.60389 6.30673,1.99638 8.2606,4.17746 1.95382,2.18114 2.9681,4.97917 3.04286,8.39411 l -5.53281,-0.0845 c -0.14001,-2.2849 -0.76786,-4.09273 -1.88356,-5.4235 -1.11575,-1.33073 -2.59786,-2.15317 -4.44633,-2.46735 -2.7933,-0.47469 -5.23301,0.14087 -7.31912,1.84668 -2.08614,1.70586 -3.49746,4.72563 -4.23396,9.0593 -0.74699,4.39532 -0.44768,7.73222 0.89793,10.01071 1.34559,2.27849 3.37395,3.64812 6.08509,4.10887 2.17709,0.37 4.10822,0.0114 5.79339,-1.07579 1.68512,-1.08719 2.95842,-2.984 3.81991,-5.69043 z"
         style="font-size:64px;font-style:normal;font-variant:normal;font-weight:normal;font-stretch:normal;text-align:start;line-height:125%;writing-mode:lr-tb;text-anchor:start;fill:#000001;fill-opacity:1;stroke:#040307;stroke-opacity:0.99415205;font-family:Sans;-inkscape-font-specification:Sans"
         id="path5151"
         inkscape:connector-curvature="0" />
      <path
         d="m 369.29342,260.44324 -0.81292,4.96868 c -1.60704,-0.18851 -3.00298,-0.48188 -4.18782,-0.88013 -1.93528,-0.6505 -3.33322,-1.46104 -4.19382,-2.43165 -0.86061,-0.97061 -1.34054,-2.02756 -1.43978,-3.17084 -0.0993,-1.14328 0.38877,-3.31448 1.46407,-6.5136 l 6.08339,-18.09873 -3.91003,-1.31425 1.3939,-4.147 3.91003,1.31425 2.61855,-7.79045 6.37754,-1.41692 -3.69384,10.98957 5.36148,1.80212 -1.3939,4.147 -5.36149,-1.80211 -6.18295,18.39493 c -0.51111,1.52058 -0.74587,2.52961 -0.70428,3.02712 0.0416,0.4975 0.23149,0.94597 0.56979,1.3454 0.33827,0.39943 0.90237,0.73189 1.69229,0.9974 0.59241,0.19913 1.39567,0.3922 2.40979,0.57921 z"
         style="font-size:64px;font-style:normal;font-variant:normal;font-weight:normal;font-stretch:normal;text-align:start;line-height:125%;writing-mode:lr-tb;text-anchor:start;fill:#000001;fill-opacity:1;stroke:#040307;stroke-opacity:0.99415205;font-family:Sans;-inkscape-font-specification:Sans"
         id="path5153"
         inkscape:connector-curvature="0" />
    </g>
    <path
       sodipodi:type="arc"
       style="fill:#f0ffff;fill-opacity:1;stroke:#060709;stroke-width:1.39509404;stroke-opacity:1"
       id="path4917"
       sodipodi:cx="314.60461"
       sodipodi:cy="386.71051"
       sodipodi:rx="207.43654"
       sodipodi:ry="166.12511"
       d="m 522.04115,386.71051 a 207.43654,166.12511 0 1 1 -1.36942,-19.05719"
       transform="matrix(-0.03819045,0.70390744,-0.79793931,-0.06259571,639.2982,153.84687)"
       inkscape:path-effect="#path-effect4964"
       sodipodi:start="0"
       sodipodi:end="6.1682163"
       sodipodi:open="true" />
    <path
       sodipodi:type="arc"
       style="fill:none;stroke:#01060a;stroke-width:9.20558729999999950;stroke-miterlimit:4;stroke-opacity:1;stroke-dasharray:none"
       id="path5099"
       sodipodi:cx="321.86566"
       sodipodi:cy="375.59332"
       sodipodi:rx="229.76102"
       sodipodi:ry="216.24567"
       d="m 551.62668,375.59332 a 229.76102,216.24567 0 1 1 -459.522035,0 229.76102,216.24567 0 1 1 459.522035,0 z"
       transform="matrix(1.0538627,0,0,1.1197291,-19.596583,-76.247538)" />
  </g>
</svg>
